<svg width="40" height="40" viewBox="0 0 40 40" fill="none" xmlns="http://www.w3.org/2000/svg">
<path d="M19.2929 30.7071C19.6834 31.0976 20.3166 31.0976 20.7071 30.7071L27.0711 24.3431C27.4616 23.9526 27.4616 23.3195 27.0711 22.9289C26.6805 22.5384 26.0474 22.5384 25.6569 22.9289L20 28.5858L14.3431 22.9289C13.9526 22.5384 13.3195 22.5384 12.9289 22.9289C12.5384 23.3195 12.5384 23.9526 12.9289 24.3431L19.2929 30.7071ZM19 10L19 30L21 30L21 10L19 10Z" fill="#FFCA3C"/>
<path d="M40 20C40 31.0457 31.0457 40 20 40C8.95431 40 0 31.0457 0 20C0 8.95431 8.95431 0 20 0C31.0457 0 40 8.95431 40 20ZM2 20C2 29.9411 10.0589 38 20 38C29.9411 38 38 29.9411 38 20C38 10.0589 29.9411 2 20 2C10.0589 2 2 10.0589 2 20Z" fill="#FFE259"/>
</svg>
