<svg width="486" height="484" viewBox="0 0 486 484" fill="none" xmlns="http://www.w3.org/2000/svg">
<path d="M221.117 210.5C219.617 210.5 218.617 211.5 218.617 214V233C218.617 235 221.117 235.5 221.117 235.5H264.117C265.117 235.5 266.117 234.5 266.117 233V214C266.117 212 264.617 210.5 262.117 210.5H221.117Z" fill="black"/>
<path d="M230.117 208H255.117C255.117 195.5 245.617 195.5 245.617 195.5V-150H239.617V195.5C239.617 195.5 230.117 195.5 230.117 208Z" fill="black"/>
<path d="M244.117 398.5C266.446 397.922 281.451 388.047 293.117 369C303.112 352.681 304.881 339.034 300.117 320.5C298.061 312.5 289.521 303.632 284.617 292.5C279.713 281.368 278.42 276.207 275.117 264.5C273.857 260.033 273.617 255.5 273.617 251.5C273.617 246 267.117 241 262.117 241H224.117C218.617 241 212.617 246 212.617 251.5C212.617 254.5 211.84 260.023 210.617 264.5C207.529 275.808 205.344 281.085 200.982 291.618L200.617 292.5C195.872 303.962 188.661 308.474 185.617 320.5C180.928 339.026 182.219 352.654 192.117 369C204.211 388.971 220.777 399.104 244.117 398.5Z" fill="white"/>
<path d="M125.4 396.4C125.8 396.4 126 397 126 398.2C126 399.4 125.8 400 125.4 400C119.4 400 114.7 399.9 111.3 399.7L91.2 399.4L67.2 399.7C63.2 399.9 57.5 400 50.1 400C49.7 400 49.5 399.4 49.5 398.2C49.5 397 49.7 396.4 50.1 396.4C58.3 396.4 64 396 67.2 395.2C70.6 394.2 72.9 392.4 74.1 389.8C75.3 387 75.9 382.3 75.9 375.7V345.4C50.7 345 27.6 344.8 6.6 344.8C5.6 344.8 4.8 344.5 4.2 343.9C3.8 343.1 3.9 342.3 4.5 341.5L102.9 211C103.3 210.6 103.9 210.4 104.7 210.4C105.3 210.4 105.9 210.6 106.5 211C107.1 211.2 107.4 211.6 107.4 212.2V334.9L125.4 334.3C126.2 334.3 126.6 336.4 126.6 340.6C126.6 344.8 126.2 346.9 125.4 346.9L107.4 346V375.7C107.4 381.9 107.8 386.4 108.6 389.2C109.6 392 111.3 393.9 113.7 394.9C116.1 395.9 120 396.4 125.4 396.4ZM24 336.1C48.8 336.1 66.1 336 75.9 335.8V261.4L22.5 334C21.3 335.4 21.8 336.1 24 336.1Z" fill="white"/>
<path d="M468.4 396.4C468.8 396.4 469 397 469 398.2C469 399.4 468.8 400 468.4 400C462.4 400 457.7 399.9 454.3 399.7L434.2 399.4L410.2 399.7C406.2 399.9 400.5 400 393.1 400C392.7 400 392.5 399.4 392.5 398.2C392.5 397 392.7 396.4 393.1 396.4C401.3 396.4 407 396 410.2 395.2C413.6 394.2 415.9 392.4 417.1 389.8C418.3 387 418.9 382.3 418.9 375.7V345.4C393.7 345 370.6 344.8 349.6 344.8C348.6 344.8 347.8 344.5 347.2 343.9C346.8 343.1 346.9 342.3 347.5 341.5L445.9 211C446.3 210.6 446.9 210.4 447.7 210.4C448.3 210.4 448.9 210.6 449.5 211C450.1 211.2 450.4 211.6 450.4 212.2V334.9L468.4 334.3C469.2 334.3 469.6 336.4 469.6 340.6C469.6 344.8 469.2 346.9 468.4 346.9L450.4 346V375.7C450.4 381.9 450.8 386.4 451.6 389.2C452.6 392 454.3 393.9 456.7 394.9C459.1 395.9 463 396.4 468.4 396.4ZM367 336.1C391.8 336.1 409.1 336 418.9 335.8V261.4L365.5 334C364.3 335.4 364.8 336.1 367 336.1Z" fill="white"/>
</svg>
