<?xml version="1.0" encoding="utf-8"?><svg viewBox="0 0 40 40" xmlns="http://www.w3.org/2000/svg" xmlns:xlink="http://www.w3.org/1999/xlink"><style>:root>svg{display:none}:root>svg:target{display:block}</style><svg fill="none" viewBox="0 0 40 40" id="arrow-circle" xmlns="http://www.w3.org/2000/svg"><path d="M19.293 30.707a1 1 0 001.414 0l6.364-6.364a1 1 0 00-1.414-1.414L20 28.586l-5.657-5.657a1 1 0 00-1.414 1.414l6.364 6.364zM19 10v20h2V10h-2z" fill="#FFCA3C"/><path d="M40 20c0 11.046-8.954 20-20 20S0 31.046 0 20 8.954 0 20 0s20 8.954 20 20zM2 20c0 9.941 8.059 18 18 18s18-8.059 18-18S29.941 2 20 2 2 10.059 2 20z" fill="#FFE259"/></svg><svg fill="none" viewBox="0 0 21 16" id="arrow-slider" xmlns="http://www.w3.org/2000/svg"><path d="M20.707 7.293a1 1 0 010 1.414l-6.364 6.364a1 1 0 01-1.414-1.414L18.586 8l-5.657-5.657A1 1 0 0114.343.93l6.364 6.364zM0 7h20v2H0V7z" fill="#FFCA3C"/></svg><svg fill="none" viewBox="0 0 24 24" id="search" xmlns="http://www.w3.org/2000/svg"><path d="M15.5 14h-.79l-.28-.27A6.47 6.47 0 0016 9.5 6.5 6.5 0 109.5 16c1.61 0 3.09-.59 4.23-1.57l.27.28v.79l5 4.99L20.49 19l-4.99-5zm-6 0C7.01 14 5 11.99 5 9.5S7.01 5 9.5 5 14 7.01 14 9.5 11.99 14 9.5 14z" fill="#FFF"/></svg><svg fill="none" viewBox="0 0 24 24" id="search-dark" xmlns="http://www.w3.org/2000/svg"><path d="M15.5 14h-.79l-.28-.27A6.47 6.47 0 0016 9.5 6.5 6.5 0 109.5 16c1.61 0 3.09-.59 4.23-1.57l.27.28v.79l5 4.99L20.49 19l-4.99-5zm-6 0C7.01 14 5 11.99 5 9.5S7.01 5 9.5 5 14 7.01 14 9.5 11.99 14 9.5 14z" fill="#2F2F2F"/></svg><svg fill="none" viewBox="0 0 24 24" id="telegram" xmlns="http://www.w3.org/2000/svg"><path d="M12 2C6.48 2 2 6.48 2 12s4.48 10 10 10 10-4.48 10-10S17.52 2 12 2zm4.64 6.8c-.15 1.58-.8 5.42-1.13 7.19-.14.75-.42 1-.68 1.03-.58.05-1.02-.38-1.58-.75-.88-.58-1.38-.94-2.23-1.5-.99-.65-.35-1.01.22-1.59.15-.15 2.71-2.48 2.76-2.69a.2.2 0 00-.05-.18c-.06-.05-.14-.03-.21-.02-.09.02-1.49.95-4.22 2.79-.4.27-.76.41-1.08.4-.36-.01-1.04-.2-1.55-.37-.63-.2-1.12-.31-1.08-.66.02-.18.27-.36.74-.55 2.92-1.27 4.86-2.11 5.83-2.51 2.78-1.16 3.35-1.36 3.73-1.36.08 0 .27.02.39.12.1.08.13.19.14.27-.01.06.01.24 0 .38z" fill="#F6F6F6"/></svg><svg fill="none" viewBox="0 0 24 24" id="viber" xmlns="http://www.w3.org/2000/svg"><path d="M7.965 6.202a.822.822 0 00-.537.106h-.014c-.375.22-.713.497-1.001.823-.24.277-.37.557-.404.827-.02.16-.006.322.041.475l.018.01c.27.793.622 1.556 1.052 2.274a13.374 13.374 0 002.03 2.775l.024.034.038.028.023.027.028.024a13.564 13.564 0 002.782 2.04c1.155.629 1.856.926 2.277 1.05v.006c.123.038.235.055.348.055a1.61 1.61 0 00.964-.414c.325-.288.6-.627.814-1.004v-.007c.201-.38.133-.738-.157-.981A12.126 12.126 0 0014.41 13c-.448-.243-.903-.096-1.087.15l-.393.496c-.202.246-.568.212-.568.212l-.01.006c-2.731-.697-3.46-3.462-3.46-3.462s-.034-.376.219-.568l.492-.396c.236-.192.4-.646.147-1.094a11.807 11.807 0 00-1.347-1.88.748.748 0 00-.44-.263l.002.001zM12.58 5a.5.5 0 000 1c1.264 0 2.314.413 3.145 1.205.427.433.76.946.978 1.508.219.563.319 1.164.293 1.766a.5.5 0 101 .042 5.36 5.36 0 00-.361-2.17 5.443 5.443 0 00-1.204-1.854l-.01-.01C15.39 5.502 14.086 5 12.58 5z" fill="#F6F6F6"/><path d="M12.545 6.644a.5.5 0 000 1h.017c.912.065 1.576.37 2.041.868.477.514.724 1.153.705 1.943a.5.5 0 001 .023c.024-1.037-.31-1.932-.972-2.646V7.83c-.677-.726-1.606-1.11-2.724-1.185l-.017-.002-.05.001z" fill="#F6F6F6"/><path d="M12.526 8.32a.5.5 0 10-.052.997c.418.022.685.148.853.317.169.17.295.443.318.87a.5.5 0 10.998-.053c-.032-.6-.22-1.13-.605-1.52-.387-.39-.914-.58-1.512-.612z" fill="#F6F6F6"/><path fill-rule="evenodd" clip-rule="evenodd" d="M7.067 2.384a22.15 22.15 0 019.664 0l.34.075a5.155 5.155 0 013.871 3.763 19.718 19.718 0 010 9.7 5.155 5.155 0 01-3.872 3.763l-.34.075a22.154 22.154 0 01-6.077.5L8 22.632a.75.75 0 01-1.24-.435l-.439-2.622a5.155 5.155 0 01-3.465-3.654 19.717 19.717 0 010-9.7A5.155 5.155 0 016.728 2.46l.34-.075zm9.337 1.463a20.65 20.65 0 00-9.01 0l-.34.076A3.655 3.655 0 004.31 6.591a18.217 18.217 0 000 8.962 3.655 3.655 0 002.745 2.668l.09.02a.75.75 0 01.576.608l.294 1.758 1.872-1.675a.751.751 0 01.553-.19 20.654 20.654 0 005.964-.445l.34-.076a3.656 3.656 0 002.744-2.668c.746-2.94.746-6.02 0-8.962a3.656 3.656 0 00-2.745-2.668l-.339-.076z" fill="#F6F6F6"/></svg><svg fill="none" viewBox="0 0 24 24" id="whatsapp" xmlns="http://www.w3.org/2000/svg"><path d="M19.05 4.91A9.816 9.816 0 0012.04 2c-5.46 0-9.91 4.45-9.91 9.91 0 1.75.46 3.45 1.32 4.95L2.05 22l5.25-1.38c1.45.79 3.08 1.21 4.74 1.21 5.46 0 9.91-4.45 9.91-9.91 0-2.65-1.03-5.14-2.9-7.01zm-7.01 15.24c-1.48 0-2.93-.4-4.2-1.15l-.3-.18-3.12.82.83-3.04-.2-.31a8.264 8.264 0 01-1.26-4.38c0-4.54 3.7-8.24 8.24-8.24 2.2 0 4.27.86 5.82 2.42a8.183 8.183 0 012.41 5.83c.02 4.54-3.68 8.23-8.22 8.23zm4.52-6.16c-.25-.12-1.47-.72-1.69-.81-.23-.08-.39-.12-.56.12-.17.25-.64.81-.78.97-.14.17-.29.19-.54.06-.25-.12-1.05-.39-1.99-1.23-.74-.66-1.23-1.47-1.38-1.72-.14-.25-.02-.38.11-.51.11-.11.25-.29.37-.43s.17-.25.25-.41c.08-.17.04-.31-.02-.43s-.56-1.34-.76-1.84c-.2-.48-.41-.42-.56-.43h-.48c-.17 0-.43.06-.66.31-.22.25-.86.85-.86 2.07 0 1.22.89 2.4 1.01 2.56.12.17 1.75 2.67 4.23 3.74.59.26 1.05.41 1.41.52.59.19 1.13.16 1.56.1.48-.07 1.47-.6 1.67-1.18.21-.58.21-1.07.14-1.18-.07-.11-.22-.16-.47-.28z" fill="#F6F6F6"/></svg><svg fill="none" viewBox="0 0 25 25" id="youtube" xmlns="http://www.w3.org/2000/svg"><path d="M12.5 2.875C.215 2.875 0 3.967 0 12.5c0 8.532.215 9.625 12.5 9.625S25 21.032 25 12.5c0-8.533-.215-9.625-12.5-9.625zm4.006 10.043l-5.612 2.62c-.492.227-.894-.028-.894-.57v-4.935c0-.542.402-.798.894-.57l5.612 2.62c.491.23.491.604 0 .835z" fill="#FFE058"/></svg></svg>