<?xml version="1.0" encoding="utf-8"?><svg viewBox="0 0 40 40" xmlns="http://www.w3.org/2000/svg" xmlns:xlink="http://www.w3.org/1999/xlink"><style>:root>svg{display:none}:root>svg:target{display:block}</style><svg fill="none" viewBox="0 0 40 40" id="arrow-circle" xmlns="http://www.w3.org/2000/svg"><path d="M19.293 30.707a1 1 0 001.414 0l6.364-6.364a1 1 0 00-1.414-1.414L20 28.586l-5.657-5.657a1 1 0 00-1.414 1.414l6.364 6.364zM19 10v20h2V10h-2z" fill="#FFCA3C"/><path d="M40 20c0 11.046-8.954 20-20 20S0 31.046 0 20 8.954 0 20 0s20 8.954 20 20zM2 20c0 9.941 8.059 18 18 18s18-8.059 18-18S29.941 2 20 2 2 10.059 2 20z" fill="#FFE259"/></svg><svg fill="none" viewBox="0 0 21 16" id="arrow-slider" xmlns="http://www.w3.org/2000/svg"><path d="M20.707 7.293a1 1 0 010 1.414l-6.364 6.364a1 1 0 01-1.414-1.414L18.586 8l-5.657-5.657A1 1 0 0114.343.93l6.364 6.364zM0 7h20v2H0V7z" fill="#FFCA3C"/></svg><svg fill="none" viewBox="0 0 24 24" id="search" xmlns="http://www.w3.org/2000/svg"><path d="M15.5 14h-.79l-.28-.27A6.47 6.47 0 0016 9.5 6.5 6.5 0 109.5 16c1.61 0 3.09-.59 4.23-1.57l.27.28v.79l5 4.99L20.49 19l-4.99-5zm-6 0C7.01 14 5 11.99 5 9.5S7.01 5 9.5 5 14 7.01 14 9.5 11.99 14 9.5 14z" fill="#FFF"/></svg><svg fill="none" viewBox="0 0 24 24" id="search-dark" xmlns="http://www.w3.org/2000/svg"><path d="M15.5 14h-.79l-.28-.27A6.47 6.47 0 0016 9.5 6.5 6.5 0 109.5 16c1.61 0 3.09-.59 4.23-1.57l.27.28v.79l5 4.99L20.49 19l-4.99-5zm-6 0C7.01 14 5 11.99 5 9.5S7.01 5 9.5 5 14 7.01 14 9.5 11.99 14 9.5 14z" fill="#2F2F2F"/></svg><svg fill="none" viewBox="0 0 25 25" id="youtube" xmlns="http://www.w3.org/2000/svg"><path d="M12.5 2.875C.215 2.875 0 3.967 0 12.5c0 8.532.215 9.625 12.5 9.625S25 21.032 25 12.5c0-8.533-.215-9.625-12.5-9.625zm4.006 10.043l-5.612 2.62c-.492.227-.894-.028-.894-.57v-4.935c0-.542.402-.798.894-.57l5.612 2.62c.491.23.491.604 0 .835z" fill="#FFE058"/></svg></svg>